<?xml version="1.0" encoding="utf-8"?>
<svg version="1.1" xmlns:xlink="http://www.w3.org/1999/xlink" width="35px" height="34px" xmlns="http://www.w3.org/2000/svg">
  <defs>
    <pattern id="BGPattern" patternUnits="userSpaceOnUse" alignment="0 0" imageRepeat="None" />
    <mask fill="white" id="Clip4">
      <path d="M 0 17  C 0 7.479999999999999  7.699999999999999 0  17.5 0  C 27.3 0  35 7.479999999999999  35 17  C 35 26.52  27.3 34  17.5 34  C 7.699999999999999 34  0 26.52  0 17  Z " fill-rule="evenodd" />
    </mask>
  </defs>
  <g transform="matrix(1 0 0 1 -695 -438 )">
    <path d="M 0 17  C 0 7.479999999999999  7.699999999999999 0  17.5 0  C 27.3 0  35 7.479999999999999  35 17  C 35 26.52  27.3 34  17.5 34  C 7.699999999999999 34  0 26.52  0 17  Z " fill-rule="nonzero" fill="rgba(255, 255, 255, 0.1607843137254902)" stroke="none" transform="matrix(1 0 0 1 695 438 )" class="fill" />
    <path d="M 0 17  C 0 7.479999999999999  7.699999999999999 0  17.5 0  C 27.3 0  35 7.479999999999999  35 17  C 35 26.52  27.3 34  17.5 34  C 7.699999999999999 34  0 26.52  0 17  Z " stroke-width="2" stroke-dasharray="0" stroke="rgba(121, 121, 121, 1)" fill="none" transform="matrix(1 0 0 1 695 438 )" class="stroke" mask="url(#Clip4)" />
  </g>
</svg>